<svg class="main-svg" xmlns="http://www.w3.org/2000/svg" xmlns:xlink="http://www.w3.org/1999/xlink" width="360" height="430" style="" viewBox="0 0 360 430"><rect x="0" y="0" width="360" height="430" style="fill: rgb(255, 255, 255); fill-opacity: 1;"/><defs id="defs-6922f3"><g class="clips"><clipPath id="clip6922f3xyplot" class="plotclip"><rect width="133.65" height="104.39999999999999"/></clipPath><clipPath id="clip6922f3x2y2plot" class="plotclip"><rect width="133.64999999999998" height="104.39999999999999"/></clipPath><clipPath id="clip6922f3x3y3plot" class="plotclip"><rect width="133.65" height="104.4"/></clipPath><clipPath id="clip6922f3x4y4plot" class="plotclip"><rect width="133.64999999999998" height="104.4"/></clipPath><clipPath class="axesclip" id="clip6922f3x"><rect x="53" y="0" width="133.65" height="430"/></clipPath><clipPath class="axesclip" id="clip6922f3y"><rect x="0" y="60" width="360" height="104.39999999999999"/></clipPath><clipPath class="axesclip" id="clip6922f3xy"><rect x="53" y="60" width="133.65" height="104.39999999999999"/></clipPath><clipPath class="axesclip" id="clip6922f3y2"><rect x="0" y="60" width="360" height="104.39999999999999"/></clipPath><clipPath class="axesclip" id="clip6922f3xy2"><rect x="53" y="60" width="133.65" height="104.39999999999999"/></clipPath><clipPath class="axesclip" id="clip6922f3y3"><rect x="0" y="187.60000000000002" width="360" height="104.4"/></clipPath><clipPath class="axesclip" id="clip6922f3xy3"><rect x="53" y="187.60000000000002" width="133.65" height="104.4"/></clipPath><clipPath class="axesclip" id="clip6922f3y4"><rect x="0" y="187.60000000000002" width="360" height="104.4"/></clipPath><clipPath class="axesclip" id="clip6922f3xy4"><rect x="53" y="187.60000000000002" width="133.65" height="104.4"/></clipPath><clipPath class="axesclip" id="clip6922f3x2"><rect x="216.35000000000002" y="0" width="133.64999999999998" height="430"/></clipPath><clipPath class="axesclip" id="clip6922f3x2y"><rect x="216.35000000000002" y="60" width="133.64999999999998" height="104.39999999999999"/></clipPath><clipPath class="axesclip" id="clip6922f3x2y2"><rect x="216.35000000000002" y="60" width="133.64999999999998" height="104.39999999999999"/></clipPath><clipPath class="axesclip" id="clip6922f3x2y3"><rect x="216.35000000000002" y="187.60000000000002" width="133.64999999999998" height="104.4"/></clipPath><clipPath class="axesclip" id="clip6922f3x2y4"><rect x="216.35000000000002" y="187.60000000000002" width="133.64999999999998" height="104.4"/></clipPath><clipPath class="axesclip" id="clip6922f3x3"><rect x="53" y="0" width="133.65" height="430"/></clipPath><clipPath class="axesclip" id="clip6922f3x3y"><rect x="53" y="60" width="133.65" height="104.39999999999999"/></clipPath><clipPath class="axesclip" id="clip6922f3x3y2"><rect x="53" y="60" width="133.65" height="104.39999999999999"/></clipPath><clipPath class="axesclip" id="clip6922f3x3y3"><rect x="53" y="187.60000000000002" width="133.65" height="104.4"/></clipPath><clipPath class="axesclip" id="clip6922f3x3y4"><rect x="53" y="187.60000000000002" width="133.65" height="104.4"/></clipPath><clipPath class="axesclip" id="clip6922f3x4"><rect x="216.35000000000002" y="0" width="133.64999999999998" height="430"/></clipPath><clipPath class="axesclip" id="clip6922f3x4y"><rect x="216.35000000000002" y="60" width="133.64999999999998" height="104.39999999999999"/></clipPath><clipPath class="axesclip" id="clip6922f3x4y2"><rect x="216.35000000000002" y="60" width="133.64999999999998" height="104.39999999999999"/></clipPath><clipPath class="axesclip" id="clip6922f3x4y3"><rect x="216.35000000000002" y="187.60000000000002" width="133.64999999999998" height="104.4"/></clipPath><clipPath class="axesclip" id="clip6922f3x4y4"><rect x="216.35000000000002" y="187.60000000000002" width="133.64999999999998" height="104.4"/></clipPath></g><g class="gradients"/><g class="patterns"/></defs><g class="bglayer"/><g class="layer-below"><g class="imagelayer"/><g class="shapelayer"/></g><g class="cartesianlayer"><g class="subplot xy"><g class="layer-subplot"><g class="shapelayer"/><g class="imagelayer"/></g><g class="minor-gridlayer"><g class="x"/><g class="y"/></g><g class="gridlayer"><g class="x"><path class="xgrid crisp" transform="translate(93.31,0)" d="M0,60v104.39999999999999" style="stroke: rgb(235, 240, 248); stroke-opacity: 1; stroke-width: 1px;"/><path class="xgrid crisp" transform="translate(135.74,0)" d="M0,60v104.39999999999999" style="stroke: rgb(235, 240, 248); stroke-opacity: 1; stroke-width: 1px;"/><path class="xgrid crisp" transform="translate(178.16,0)" d="M0,60v104.39999999999999" style="stroke: rgb(235, 240, 248); stroke-opacity: 1; stroke-width: 1px;"/></g><g class="y"><path class="ygrid crisp" transform="translate(0,119.75)" d="M53,0h133.65" style="stroke: rgb(235, 240, 248); stroke-opacity: 1; stroke-width: 1px;"/><path class="ygrid crisp" transform="translate(0,80.32)" d="M53,0h133.65" style="stroke: rgb(235, 240, 248); stroke-opacity: 1; stroke-width: 1px;"/></g></g><g class="zerolinelayer"><path class="yzl zl crisp" transform="translate(0,159.18)" d="M53,0h133.65" style="stroke: rgb(235, 240, 248); stroke-opacity: 1; stroke-width: 2px;"/></g><g class="layer-between"><g class="shapelayer"/><g class="imagelayer"/></g><path class="xlines-below"/><path class="ylines-below"/><g class="overlines-below"/><g class="xaxislayer-below"/><g class="yaxislayer-below"/><g class="overaxes-below"/><g class="overplot"><g class="xy" transform="translate(53,60)" clip-path="url(#clip6922f3xyplot)"><g class="scatterlayer mlayer"><g class="trace scatter traced64242" style="stroke-miterlimit: 2; opacity: 1;"><g class="fills"/><g class="errorbars"/><g class="lines"><path class="js-line" d="M0,99.18L12.73,98.6L14.85,96.58L16.97,96.39L19.09,93.02L21.21,90.03L23.34,84.16L27.58,75.11L29.7,72.03L33.94,66.64L36.06,63.08L40.31,57.11L42.43,54.61L46.67,49.6L48.79,48.54L70.01,34.39L72.13,33.04L78.49,29.77L80.61,28.9L86.98,27.07L89.1,26.11L95.46,23.42L97.59,22.74L101.83,21.59L103.95,20.91L108.19,20.24L110.31,19.56L116.68,18.6L118.8,18.12L133.65,15.91" style="vector-effect: none; fill: none; stroke: rgb(0, 0, 255); stroke-opacity: 1; stroke-width: 2px; opacity: 1;"/></g><g class="points"/><g class="text"/></g><g class="trace scatter tracec3d307" style="stroke-miterlimit: 2; opacity: 1;"><g class="fills"/><g class="errorbars"/><g class="lines"><path class="js-line" d="M0,88.15L2.12,79.76L4.24,75.62L6.36,71.19L8.49,68.84L10.61,65.28L12.73,64.44L16.97,61.48L19.09,60.63L23.34,58.81L25.46,56.71L29.7,51.84L31.82,51.35L40.31,45.64L42.43,45.12L48.79,42.79L50.91,42.45L57.28,41.12L59.4,40.95L97.59,35.31L99.71,35.31L129.41,34.62L131.53,34.45L133.65,34.45" style="vector-effect: none; fill: none; stroke: rgb(218, 165, 32); stroke-opacity: 1; stroke-width: 2px; opacity: 1;"/></g><g class="points"/><g class="text"/></g><g class="trace scatter tracea1b86f" style="stroke-miterlimit: 2; opacity: 1;"><g class="fills"/><g class="errorbars"/><g class="lines"><path class="js-line" d="M0,99.18L4.24,99.08L6.36,98.02L12.73,94.85L14.85,93.69L19.09,90.9L21.21,88.11L27.58,78.48L29.7,75.5L38.19,62.6L40.31,60.19L44.55,54.7L46.67,53.74L50.91,50.18L53.04,49.31L63.64,44.02L65.76,43.05L78.49,40.36L80.61,39.3L89.1,37.09L91.22,36.32L101.83,34.1L103.95,33.91L118.8,31.98L120.92,31.69L133.65,30.25" style="vector-effect: none; fill: none; stroke: rgb(0, 128, 0); stroke-opacity: 1; stroke-width: 2px; opacity: 1;"/></g><g class="points"/><g class="text"/></g><g class="trace scatter trace93d0ae" style="stroke-miterlimit: 2; opacity: 1;"><g class="fills"/><g class="errorbars"/><g class="lines"><path class="js-line" d="M0,99.18L4.24,98.7L6.36,96.68L8.49,96.2L10.61,94.56L12.73,93.6L14.85,91.57L21.21,86.76L23.34,83.68L27.58,79.64L29.7,78.1L33.94,75.59L36.06,72.8L46.67,65.87L48.79,64.81L59.4,60.77L61.52,60.58L65.76,59.61L67.89,58.94L78.49,56.24L80.61,55.67L89.1,54.8L91.22,54.41L99.71,52.97L101.83,52.59L112.44,51.24L114.56,51.14L133.65,49.79" style="vector-effect: none; fill: none; stroke: rgb(255, 0, 0); stroke-opacity: 1; stroke-width: 2px; opacity: 1;"/></g><g class="points"/><g class="text"/></g><g class="trace scatter trace8536e0" style="stroke-miterlimit: 2; opacity: 1;"><g class="fills"/><g class="errorbars"/><g class="lines"><path class="js-line" d="M0,97.64L2.12,96.1L4.24,93.02L6.36,91.48L8.49,83.78L10.61,69.91L12.73,65.29L14.85,60.67L16.97,59.13L19.09,56.05L21.21,54.51L25.46,43.73L27.58,39.11L29.7,34.49L31.82,32.95L33.94,32.95L36.06,31.41L38.19,28.32L40.31,26.78L42.43,25.24L44.55,25.24L46.67,23.7L48.79,23.7L50.91,20.62L53.04,20.62L59.4,20.62L61.52,19.08L63.64,19.08L65.76,17.54L67.89,16L70.01,16L74.25,16L76.37,14.46L78.49,12.92L80.61,12.92L86.98,12.92L89.1,11.38L93.34,11.38L95.46,9.84L97.59,8.3L99.71,8.3L110.31,8.3L112.44,6.76L123.04,6.76L125.16,5.22L133.65,5.22" style="vector-effect: none; fill: none; stroke: rgb(0, 0, 255); stroke-opacity: 1; stroke-dasharray: 3px, 3px; stroke-width: 2px; opacity: 1;"/></g><g class="points"/><g class="text"/></g><g class="trace scatter trace807ff6" style="stroke-miterlimit: 2; opacity: 1;"><g class="fills"/><g class="errorbars"/><g class="lines"><path class="js-line" d="M0,78.49L4.24,70.29L6.36,68.11L8.49,66.82L10.61,63.65L12.73,61.62L14.85,61.13L19.09,58.34L21.21,58.17L29.7,53.36L31.82,53.36L40.31,50.68L42.43,50.19L44.55,50.02L46.67,49.02L50.91,48.16L53.04,47.85L59.4,47.01L61.52,46.84L65.76,46.16L67.89,46.16L72.13,45.98L74.25,45.3L97.59,44.64L99.71,44.46L101.83,44.46L103.95,43.29L118.8,42.63L120.92,42.45L133.65,42.45" style="vector-effect: none; fill: none; stroke: rgb(218, 165, 32); stroke-opacity: 1; stroke-dasharray: 3px, 3px; stroke-width: 2px; opacity: 1;"/></g><g class="points"/><g class="text"/></g><g class="trace scatter tracedceb35" style="stroke-miterlimit: 2; opacity: 1;"><g class="fills"/><g class="errorbars"/><g class="lines"><path class="js-line" d="M0,99.18L2.12,97.64L4.24,93.02L6.36,93.02L8.49,89.94L10.61,88.4L12.73,88.4L14.85,85.32L16.97,83.78L19.09,82.24L21.21,82.24L23.34,80.7L25.46,69.91L29.7,66.83L31.82,63.75L33.94,57.59L36.06,57.59L38.19,57.59L40.31,56.05L42.43,52.97L44.55,51.43L53.04,51.43L55.16,49.89L61.52,49.89L63.64,48.35L65.76,48.35L67.89,46.81L76.37,46.81L78.49,45.27L97.59,45.27L99.71,43.73L112.44,43.73L114.56,42.19L127.29,42.19L129.41,40.65L131.53,40.65L133.65,39.11" style="vector-effect: none; fill: none; stroke: rgb(0, 128, 0); stroke-opacity: 1; stroke-dasharray: 3px, 3px; stroke-width: 2px; opacity: 1;"/></g><g class="points"/><g class="text"/></g><g class="trace scatter trace7b66e5" style="stroke-miterlimit: 2; opacity: 1;"><g class="fills"/><g class="errorbars"/><g class="lines"><path class="js-line" d="M0,99.18L2.12,99.18L4.24,96.1L6.36,89.94L8.49,88.4L12.73,82.24L14.85,77.62L19.09,74.53L21.21,74.53L23.34,74.53L25.46,72.99L31.82,72.99L33.94,71.45L36.06,69.91L38.19,69.91L40.31,69.91L42.43,68.37L46.67,65.29L48.79,65.29L50.91,63.75L53.04,63.75L57.28,63.75L59.4,62.21L76.37,62.21L78.49,60.67L80.61,59.13L82.74,59.13L84.86,57.59L86.98,57.59L114.56,57.59L116.68,56.05L133.65,56.05" style="vector-effect: none; fill: none; stroke: rgb(255, 0, 0); stroke-opacity: 1; stroke-dasharray: 3px, 3px; stroke-width: 2px; opacity: 1;"/></g><g class="points"/><g class="text"/></g></g></g></g><path class="xlines-above crisp" d="M0,0" style="fill: none;"/><path class="ylines-above crisp" d="M0,0" style="fill: none;"/><g class="overlines-above"/><g class="xaxislayer-above"/><g class="yaxislayer-above"><g class="ytick"><text text-anchor="end" x="52" y="4.199999999999999" transform="translate(0,159.18)" style="font-family: 'Open Sans', verdana, arial, sans-serif; font-size: 12px; fill: rgb(42, 63, 95); fill-opacity: 1; white-space: pre; opacity: 1;">0</text></g><g class="ytick"><text text-anchor="end" x="52" y="4.199999999999999" style="font-family: 'Open Sans', verdana, arial, sans-serif; font-size: 12px; fill: rgb(42, 63, 95); fill-opacity: 1; white-space: pre; opacity: 1;" transform="translate(0,119.75)">0.2</text></g><g class="ytick"><text text-anchor="end" x="52" y="4.199999999999999" style="font-family: 'Open Sans', verdana, arial, sans-serif; font-size: 12px; fill: rgb(42, 63, 95); fill-opacity: 1; white-space: pre; opacity: 1;" transform="translate(0,80.32)">0.4</text></g></g><g class="overaxes-above"/></g><g class="subplot x2y2"><g class="layer-subplot"><g class="shapelayer"/><g class="imagelayer"/></g><g class="minor-gridlayer"><g class="x2"/><g class="y2"/></g><g class="gridlayer"><g class="x2"><path class="x2grid crisp" transform="translate(256.66,0)" d="M0,60v104.39999999999999" style="stroke: rgb(235, 240, 248); stroke-opacity: 1; stroke-width: 1px;"/><path class="x2grid crisp" transform="translate(299.09000000000003,0)" d="M0,60v104.39999999999999" style="stroke: rgb(235, 240, 248); stroke-opacity: 1; stroke-width: 1px;"/><path class="x2grid crisp" transform="translate(341.51,0)" d="M0,60v104.39999999999999" style="stroke: rgb(235, 240, 248); stroke-opacity: 1; stroke-width: 1px;"/></g><g class="y2"><path class="y2grid crisp" transform="translate(0,150.2)" d="M216.35000000000002,0h133.64999999999998" style="stroke: rgb(235, 240, 248); stroke-opacity: 1; stroke-width: 1px;"/><path class="y2grid crisp" transform="translate(0,111.45)" d="M216.35000000000002,0h133.64999999999998" style="stroke: rgb(235, 240, 248); stroke-opacity: 1; stroke-width: 1px;"/><path class="y2grid crisp" transform="translate(0,72.71000000000001)" d="M216.35000000000002,0h133.64999999999998" style="stroke: rgb(235, 240, 248); stroke-opacity: 1; stroke-width: 1px;"/></g></g><g class="zerolinelayer"/><g class="layer-between"><g class="shapelayer"/><g class="imagelayer"/></g><path class="xlines-below"/><path class="ylines-below"/><g class="overlines-below"/><g class="xaxislayer-below"/><g class="yaxislayer-below"/><g class="overaxes-below"/><g class="overplot"><g class="x2y2" transform="translate(216.35000000000002,60)" clip-path="url(#clip6922f3x2y2plot)"><g class="scatterlayer mlayer"><g class="trace scatter trace75658d" style="stroke-miterlimit: 2; opacity: 1;"><g class="fills"/><g class="errorbars"/><g class="lines"><path class="js-line" d="M0,72.49L2.12,70.67L4.24,36.19L6.36,33.04L8.49,33.04L12.73,31.7L14.85,31.7L21.21,31.7L23.34,30.86L25.46,30.25L27.58,28.68L31.82,28.68L33.94,27.84L55.16,27.84L57.28,26.99L76.37,26.39L78.49,25.66L82.74,25.05L84.86,25.05L131.53,24.32L133.65,23.48" style="vector-effect: none; fill: none; stroke: rgb(255, 0, 0); stroke-opacity: 1; stroke-dasharray: 3px, 3px; stroke-width: 2px; opacity: 1;"/></g><g class="points"/><g class="text"/></g><g class="trace scatter trace8714d3" style="stroke-miterlimit: 2; opacity: 1;"><g class="fills"/><g class="errorbars"/><g class="lines"><path class="js-line" d="M0,99.18L2.12,84.47L4.24,75.53L6.36,69.42L8.49,66.34L10.61,62.87L12.73,61.83L14.85,59.1L16.97,58.18L23.34,57.02L25.46,56.53L48.79,55.01L50.91,54.69L133.65,52.18" style="vector-effect: none; fill: none; stroke: rgb(218, 165, 32); stroke-opacity: 1; stroke-dasharray: 3px, 3px; stroke-width: 2px; opacity: 1;"/></g><g class="points"/><g class="text"/></g><g class="trace scatter trace293f3d" style="stroke-miterlimit: 2; opacity: 1;"><g class="fills"/><g class="errorbars"/><g class="lines"><path class="js-line" d="M0,81.84L2.12,80.63L4.24,47.73L8.49,43.98L10.61,43.98L12.73,43.98L14.85,43.13L23.34,42.53L25.46,41.69L44.55,41.69L46.67,35.23L48.79,34.39L50.91,34.39L53.04,33.54L55.16,33.54L57.28,32.7L59.4,32.7L63.64,32.7L65.76,31.86L80.61,31.13L82.74,30.4L103.95,29.67L106.07,28.82L133.65,28.82" style="vector-effect: none; fill: none; stroke: rgb(0, 128, 0); stroke-opacity: 1; stroke-dasharray: 3px, 3px; stroke-width: 2px; opacity: 1;"/></g><g class="points"/><g class="text"/></g><g class="trace scatter trace7b30f8" style="stroke-miterlimit: 2; opacity: 1;"><g class="fills"/><g class="errorbars"/><g class="lines"><path class="js-line" d="M0,90.16L2.12,88.11L4.24,53.64L6.36,24.9L8.49,23.45L25.46,22.85L27.58,22L31.82,21.4L33.94,21.4L44.55,21.4L46.67,14.94L74.25,14.34L76.37,13.73L95.46,13.13L97.59,12.28L131.53,11.68L133.65,5.22" style="vector-effect: none; fill: none; stroke: rgb(0, 0, 255); stroke-opacity: 1; stroke-dasharray: 3px, 3px; stroke-width: 2px; opacity: 1;"/></g><g class="points"/><g class="text"/></g><g class="trace scatter trace62f0d4" style="stroke-miterlimit: 2; opacity: 1;"><g class="fills"/><g class="errorbars"/><g class="lines"><path class="js-line" d="M0,92.19L2.12,83.91L4.24,68.66L6.36,62.24L8.49,59.64L10.61,58.01L12.73,57.59L14.85,55.88L16.97,55.37L21.21,52.26L23.34,51.96L25.46,49.94L27.58,49.03L33.94,46.77L36.06,46.38L44.55,44.04L46.67,43.88L59.4,42.22L61.52,42.09L78.49,40.63L80.61,40.29L93.34,39.62L95.46,39.58L133.65,38.4" style="vector-effect: none; fill: none; stroke: rgb(255, 0, 0); stroke-opacity: 1; stroke-width: 2px; opacity: 1;"/></g><g class="points"/><g class="text"/></g><g class="trace scatter trace7d2a3b" style="stroke-miterlimit: 2; opacity: 1;"><g class="fills"/><g class="errorbars"/><g class="lines"><path class="js-line" d="M0,98.17L4.24,69.55L6.36,64.55L8.49,61.22L10.61,59.74L12.73,59.1L14.85,57.64L16.97,56.53L19.09,56.47L36.06,54.9L38.19,54.73L80.61,53.59L82.74,53.25L133.65,52.47" style="vector-effect: none; fill: none; stroke: rgb(218, 165, 32); stroke-opacity: 1; stroke-width: 2px; opacity: 1;"/></g><g class="points"/><g class="text"/></g><g class="trace scatter tracedd57de" style="stroke-miterlimit: 2; opacity: 1;"><g class="fills"/><g class="errorbars"/><g class="lines"><path class="js-line" d="M0,87.53L4.24,57.09L6.36,51.45L8.49,48.79L10.61,47.4L12.73,45.83L14.85,45.43L21.21,44.71L23.34,44.52L42.43,41.93L44.55,41.83L133.65,38.74" style="vector-effect: none; fill: none; stroke: rgb(0, 128, 0); stroke-opacity: 1; stroke-width: 2px; opacity: 1;"/></g><g class="points"/><g class="text"/></g><g class="trace scatter trace4e9d6e" style="stroke-miterlimit: 2; opacity: 1;"><g class="fills"/><g class="errorbars"/><g class="lines"><path class="js-line" d="M0,93.42L2.12,80.78L4.24,62.26L6.36,54.26L8.49,50.32L14.85,45.23L16.97,45.1L36.06,42.39L38.19,41.49L63.64,39.85L65.76,39.82L72.13,39.32L74.25,39.32L86.98,38.2L89.1,37.1L97.59,36.6L99.71,35.66L110.31,34.43L112.44,34.08L120.92,33.45L123.04,33.12L133.65,32.23" style="vector-effect: none; fill: none; stroke: rgb(0, 0, 255); stroke-opacity: 1; stroke-width: 2px; opacity: 1;"/></g><g class="points"/><g class="text"/></g></g></g></g><path class="xlines-above crisp" d="M0,0" style="fill: none;"/><path class="ylines-above crisp" d="M0,0" style="fill: none;"/><g class="overlines-above"/><g class="xaxislayer-above"/><g class="yaxislayer-above"><g class="y2tick"><text text-anchor="end" x="215.35000000000002" y="4.199999999999999" transform="translate(0,150.2)" style="font-family: 'Open Sans', verdana, arial, sans-serif; font-size: 12px; fill: rgb(42, 63, 95); fill-opacity: 1; white-space: pre; opacity: 1;">1</text></g><g class="y2tick"><text text-anchor="end" x="215.35000000000002" y="4.199999999999999" style="font-family: 'Open Sans', verdana, arial, sans-serif; font-size: 12px; fill: rgb(42, 63, 95); fill-opacity: 1; white-space: pre; opacity: 1;" transform="translate(0,111.45)">2</text></g><g class="y2tick"><text text-anchor="end" x="215.35000000000002" y="4.199999999999999" style="font-family: 'Open Sans', verdana, arial, sans-serif; font-size: 12px; fill: rgb(42, 63, 95); fill-opacity: 1; white-space: pre; opacity: 1;" transform="translate(0,72.71000000000001)">3</text></g></g><g class="overaxes-above"/></g><g class="subplot x3y3"><g class="layer-subplot"><g class="shapelayer"/><g class="imagelayer"/></g><g class="minor-gridlayer"><g class="x3"/><g class="y3"/></g><g class="gridlayer"><g class="x3"><path class="x3grid crisp" transform="translate(93.31,0)" d="M0,187.60000000000002v104.4" style="stroke: rgb(235, 240, 248); stroke-opacity: 1; stroke-width: 1px;"/><path class="x3grid crisp" transform="translate(135.74,0)" d="M0,187.60000000000002v104.4" style="stroke: rgb(235, 240, 248); stroke-opacity: 1; stroke-width: 1px;"/><path class="x3grid crisp" transform="translate(178.16,0)" d="M0,187.60000000000002v104.4" style="stroke: rgb(235, 240, 248); stroke-opacity: 1; stroke-width: 1px;"/></g><g class="y3"><path class="y3grid crisp" transform="translate(0,280.3)" d="M53,0h133.65" style="stroke: rgb(235, 240, 248); stroke-opacity: 1; stroke-width: 1px;"/><path class="y3grid crisp" transform="translate(0,250.67000000000002)" d="M53,0h133.65" style="stroke: rgb(235, 240, 248); stroke-opacity: 1; stroke-width: 1px;"/><path class="y3grid crisp" transform="translate(0,221.03000000000003)" d="M53,0h133.65" style="stroke: rgb(235, 240, 248); stroke-opacity: 1; stroke-width: 1px;"/><path class="y3grid crisp" transform="translate(0,191.40000000000003)" d="M53,0h133.65" style="stroke: rgb(235, 240, 248); stroke-opacity: 1; stroke-width: 1px;"/></g></g><g class="zerolinelayer"/><g class="layer-between"><g class="shapelayer"/><g class="imagelayer"/></g><path class="xlines-below"/><path class="ylines-below"/><g class="overlines-below"/><g class="xaxislayer-below"/><g class="yaxislayer-below"/><g class="overaxes-below"/><g class="overplot"><g class="x3y3" transform="translate(53,187.60000000000002)" clip-path="url(#clip6922f3x3y3plot)"><g class="scatterlayer mlayer"><g class="trace scatter trace46c773" style="stroke-miterlimit: 2; opacity: 1;"><g class="fills"/><g class="errorbars"/><g class="lines"><path class="js-line" d="M0,86.27L4.24,38.38L6.36,23.68L10.61,11.85L12.73,8.61L14.85,6.9L16.97,6.72L23.34,6.23L25.46,6.15L44.55,5.68L46.67,5.65L133.65,5.22" style="vector-effect: none; fill: none; stroke: rgb(0, 128, 0); stroke-opacity: 1; stroke-width: 2px; opacity: 1;"/></g><g class="points"/><g class="text"/></g><g class="trace scatter trace5c2eec" style="stroke-miterlimit: 2; opacity: 1;"><g class="fills"/><g class="errorbars"/><g class="lines"><path class="js-line" d="M0,85.72L4.24,39.16L6.36,25.36L10.61,13.93L12.73,10.95L14.85,8.61L16.97,8.4L23.34,7.45L25.46,7.3L38.19,6.29L40.31,6.23L76.37,5.6L78.49,5.6L133.65,5.25" style="vector-effect: none; fill: none; stroke: rgb(218, 165, 32); stroke-opacity: 1; stroke-width: 2px; opacity: 1;"/></g><g class="points"/><g class="text"/></g><g class="trace scatter trace116b53" style="stroke-miterlimit: 2; opacity: 1;"><g class="fills"/><g class="errorbars"/><g class="lines"><path class="js-line" d="M0,89.25L4.24,44.75L6.36,31.41L10.61,20.24L12.73,17.34L14.85,15.52L16.97,15.38L23.34,14.54L25.46,14.36L40.31,12.34L42.43,12.19L133.65,10.52" style="vector-effect: none; fill: none; stroke: rgb(0, 0, 255); stroke-opacity: 1; stroke-width: 2px; opacity: 1;"/></g><g class="points"/><g class="text"/></g><g class="trace scatter trace59e789" style="stroke-miterlimit: 2; opacity: 1;"><g class="fills"/><g class="errorbars"/><g class="lines"><path class="js-line" d="M0,88.24L4.24,45.56L6.36,31.93L8.49,25.42L10.61,21.37L12.73,18.27L14.85,16.68L31.82,12.28L33.94,11.9L38.19,11.15L40.31,11.01L70.01,9.53L72.13,9.53L106.07,8.81L108.19,8.78L133.65,8.66" style="vector-effect: none; fill: none; stroke: rgb(255, 0, 0); stroke-opacity: 1; stroke-width: 2px; opacity: 1;"/></g><g class="points"/><g class="text"/></g><g class="trace scatter trace820867" style="stroke-miterlimit: 2; opacity: 1;"><g class="fills"/><g class="errorbars"/><g class="lines"><path class="js-line" d="M0,89.46L2.12,51.49L4.24,38.06L6.36,27.88L8.49,13.06L12.73,9.36L14.85,9.36L133.65,9.36" style="vector-effect: none; fill: none; stroke: rgb(0, 128, 0); stroke-opacity: 1; stroke-dasharray: 3px, 3px; stroke-width: 2px; opacity: 1;"/></g><g class="points"/><g class="text"/></g><g class="trace scatter trace5d18b5" style="stroke-miterlimit: 2; opacity: 1;"><g class="fills"/><g class="errorbars"/><g class="lines"><path class="js-line" d="M0,92.12L4.24,55.69L6.36,44.55L10.61,35.34L12.73,33.06L14.85,31.29L16.97,31.12L25.46,30.28L27.58,30.16L36.06,29.82L38.19,29.82L133.65,29.21" style="vector-effect: none; fill: none; stroke: rgb(218, 165, 32); stroke-opacity: 1; stroke-dasharray: 3px, 3px; stroke-width: 2px; opacity: 1;"/></g><g class="points"/><g class="text"/></g><g class="trace scatter trace1abc8f" style="stroke-miterlimit: 2; opacity: 1;"><g class="fills"/><g class="errorbars"/><g class="lines"><path class="js-line" d="M0,87.14L2.12,49.64L4.24,36.68L6.36,27.42L8.49,12.14L12.73,7.97L14.85,7.97L42.43,7.51L44.55,7.04L133.65,7.04" style="vector-effect: none; fill: none; stroke: rgb(0, 0, 255); stroke-opacity: 1; stroke-dasharray: 3px, 3px; stroke-width: 2px; opacity: 1;"/></g><g class="points"/><g class="text"/></g><g class="trace scatter traceb6d037" style="stroke-miterlimit: 2; opacity: 1;"><g class="fills"/><g class="errorbars"/><g class="lines"><path class="js-line" d="M0,99.18L2.12,81.59L4.24,75.57L6.36,72.33L8.49,71.4L10.61,70.47L12.73,70.47L19.09,68.16L21.21,67.7L25.46,65.38L27.58,65.38L40.31,63.07L42.43,63.07L46.67,62.6L48.79,62.6L59.4,62.14L61.52,61.68L133.65,61.21" style="vector-effect: none; fill: none; stroke: rgb(255, 0, 0); stroke-opacity: 1; stroke-dasharray: 3px, 3px; stroke-width: 2px; opacity: 1;"/></g><g class="points"/><g class="text"/></g></g></g></g><path class="xlines-above crisp" d="M0,0" style="fill: none;"/><path class="ylines-above crisp" d="M0,0" style="fill: none;"/><g class="overlines-above"/><g class="xaxislayer-above"><g class="x3tick"><text text-anchor="middle" x="0" y="305" transform="translate(93.31,0)" style="font-family: 'Open Sans', verdana, arial, sans-serif; font-size: 12px; fill: rgb(42, 63, 95); fill-opacity: 1; white-space: pre; opacity: 1;">20</text></g><g class="x3tick"><text text-anchor="middle" x="0" y="305" style="font-family: 'Open Sans', verdana, arial, sans-serif; font-size: 12px; fill: rgb(42, 63, 95); fill-opacity: 1; white-space: pre; opacity: 1;" transform="translate(135.74,0)">40</text></g><g class="x3tick"><text text-anchor="middle" x="0" y="305" style="font-family: 'Open Sans', verdana, arial, sans-serif; font-size: 12px; fill: rgb(42, 63, 95); fill-opacity: 1; white-space: pre; opacity: 1;" transform="translate(178.16,0)">60</text></g></g><g class="yaxislayer-above"><g class="y3tick"><text text-anchor="end" x="52" y="4.199999999999999" transform="translate(0,280.3)" style="font-family: 'Open Sans', verdana, arial, sans-serif; font-size: 12px; fill: rgb(42, 63, 95); fill-opacity: 1; white-space: pre; opacity: 1;">0.5</text></g><g class="y3tick"><text text-anchor="end" x="52" y="4.199999999999999" style="font-family: 'Open Sans', verdana, arial, sans-serif; font-size: 12px; fill: rgb(42, 63, 95); fill-opacity: 1; white-space: pre; opacity: 1;" transform="translate(0,250.67000000000002)">1</text></g><g class="y3tick"><text text-anchor="end" x="52" y="4.199999999999999" style="font-family: 'Open Sans', verdana, arial, sans-serif; font-size: 12px; fill: rgb(42, 63, 95); fill-opacity: 1; white-space: pre; opacity: 1;" transform="translate(0,221.03000000000003)">1.5</text></g><g class="y3tick"><text text-anchor="end" x="52" y="4.199999999999999" style="font-family: 'Open Sans', verdana, arial, sans-serif; font-size: 12px; fill: rgb(42, 63, 95); fill-opacity: 1; white-space: pre; opacity: 1;" transform="translate(0,191.40000000000003)">2</text></g></g><g class="overaxes-above"/></g><g class="subplot x4y4"><g class="layer-subplot"><g class="shapelayer"/><g class="imagelayer"/></g><g class="minor-gridlayer"><g class="x4"/><g class="y4"/></g><g class="gridlayer"><g class="x4"><path class="x4grid crisp" transform="translate(256.66,0)" d="M0,187.60000000000002v104.4" style="stroke: rgb(235, 240, 248); stroke-opacity: 1; stroke-width: 1px;"/><path class="x4grid crisp" transform="translate(299.09000000000003,0)" d="M0,187.60000000000002v104.4" style="stroke: rgb(235, 240, 248); stroke-opacity: 1; stroke-width: 1px;"/><path class="x4grid crisp" transform="translate(341.51,0)" d="M0,187.60000000000002v104.4" style="stroke: rgb(235, 240, 248); stroke-opacity: 1; stroke-width: 1px;"/></g><g class="y4"><path class="y4grid crisp" transform="translate(0,261.14000000000004)" d="M216.35000000000002,0h133.64999999999998" style="stroke: rgb(235, 240, 248); stroke-opacity: 1; stroke-width: 1px;"/><path class="y4grid crisp" transform="translate(0,231.14000000000001)" d="M216.35000000000002,0h133.64999999999998" style="stroke: rgb(235, 240, 248); stroke-opacity: 1; stroke-width: 1px;"/><path class="y4grid crisp" transform="translate(0,201.14000000000001)" d="M216.35000000000002,0h133.64999999999998" style="stroke: rgb(235, 240, 248); stroke-opacity: 1; stroke-width: 1px;"/></g></g><g class="zerolinelayer"/><g class="layer-between"><g class="shapelayer"/><g class="imagelayer"/></g><path class="xlines-below"/><path class="ylines-below"/><g class="overlines-below"/><g class="xaxislayer-below"/><g class="yaxislayer-below"/><g class="overaxes-below"/><g class="overplot"><g class="x4y4" transform="translate(216.35000000000002,187.60000000000002)" clip-path="url(#clip6922f3x4y4plot)"><g class="scatterlayer mlayer"><g class="trace scatter traceb37b52" style="stroke-miterlimit: 2; opacity: 1;"><g class="fills"/><g class="errorbars"/><g class="lines"><path class="js-line" d="M0,87.84L2.12,78L4.24,72.37L8.49,67.45L10.61,66.04L14.85,63.23L16.97,63.23L19.09,63.23L21.21,61.82L31.82,61.36L33.94,60.89L38.19,60.42L40.31,60.42L46.67,59.48L48.79,59.48L55.16,59.01L57.28,58.54L63.64,58.54L65.76,57.37L95.46,56.9L97.59,56.43L101.83,55.96L103.95,55.96L108.19,55.5L110.31,55.5L133.65,55.03" style="vector-effect: none; fill: none; stroke: rgb(255, 0, 0); stroke-opacity: 1; stroke-dasharray: 3px, 3px; stroke-width: 2px; opacity: 1;"/></g><g class="points"/><g class="text"/></g><g class="trace scatter trace57af4b" style="stroke-miterlimit: 2; opacity: 1;"><g class="fills"/><g class="errorbars"/><g class="lines"><path class="js-line" d="M0,83.15L2.12,70.26L4.24,65.34L6.36,54.32L8.49,53.39L12.73,52.92L14.85,52.92L29.7,49.4L31.82,49.4L33.94,49.4L36.06,48.23L53.04,47.76L55.16,46.59L125.16,46.12L127.29,44.95L133.65,44.95" style="vector-effect: none; fill: none; stroke: rgb(0, 128, 0); stroke-opacity: 1; stroke-dasharray: 3px, 3px; stroke-width: 2px; opacity: 1;"/></g><g class="points"/><g class="text"/></g><g class="trace scatter trace1b03aa" style="stroke-miterlimit: 2; opacity: 1;"><g class="fills"/><g class="errorbars"/><g class="lines"><path class="js-line" d="M0,99.18L2.12,93.76L4.24,91.77L10.61,88.11L12.73,87.72L19.09,85.67L21.21,85.31L44.55,81.51L46.67,81.41L78.49,79.26L80.61,79.15L133.65,77.65" style="vector-effect: none; fill: none; stroke: rgb(218, 165, 32); stroke-opacity: 1; stroke-dasharray: 3px, 3px; stroke-width: 2px; opacity: 1;"/></g><g class="points"/><g class="text"/></g><g class="trace scatter trace58635a" style="stroke-miterlimit: 2; opacity: 1;"><g class="fills"/><g class="errorbars"/><g class="lines"><path class="js-line" d="M0,65.11L2.12,51.51L4.24,45.65L6.36,36.98L8.49,36.98L10.61,34.17L12.73,33.7L14.85,32.06L16.97,31.59L27.58,29.48L29.7,28.07L33.94,28.07L36.06,26.9L46.67,26.43L48.79,25.49L59.4,25.03L61.52,24.09L108.19,23.62L110.31,23.15L133.65,23.15" style="vector-effect: none; fill: none; stroke: rgb(0, 0, 255); stroke-opacity: 1; stroke-dasharray: 3px, 3px; stroke-width: 2px; opacity: 1;"/></g><g class="points"/><g class="text"/></g><g class="trace scatter tracef853fd" style="stroke-miterlimit: 2; opacity: 1;"><g class="fills"/><g class="errorbars"/><g class="lines"><path class="js-line" d="M0,47.91L2.12,33.58L4.24,31.5L6.36,26.49L8.49,23.77L14.85,18.23L16.97,17.38L25.46,14.45L27.58,13.79L38.19,11.68L40.31,11.55L82.74,7.36L84.86,7.27L112.44,5.91L114.56,5.82L133.65,5.22" style="vector-effect: none; fill: none; stroke: rgb(255, 0, 0); stroke-opacity: 1; stroke-width: 2px; opacity: 1;"/></g><g class="points"/><g class="text"/></g><g class="trace scatter tracee8e5a5" style="stroke-miterlimit: 2; opacity: 1;"><g class="fills"/><g class="errorbars"/><g class="lines"><path class="js-line" d="M0,45.11L2.12,29.85L4.24,26.18L6.36,16.88L8.49,16.27L12.73,14.99L14.85,14.3L36.06,11.02L38.19,10.96L48.79,10.11L50.91,9.73L110.31,7.65L112.44,7.65L133.65,7.31" style="vector-effect: none; fill: none; stroke: rgb(0, 128, 0); stroke-opacity: 1; stroke-width: 2px; opacity: 1;"/></g><g class="points"/><g class="text"/></g><g class="trace scatter trace27c0da" style="stroke-miterlimit: 2; opacity: 1;"><g class="fills"/><g class="errorbars"/><g class="lines"><path class="js-line" d="M0,66.92L2.12,60.77L4.24,58.95L12.73,52.68L14.85,51.63L21.21,49.65L23.34,49.24L59.4,44.64L61.52,44.55L110.31,42.49L112.44,42.33L133.65,41.74" style="vector-effect: none; fill: none; stroke: rgb(218, 165, 32); stroke-opacity: 1; stroke-width: 2px; opacity: 1;"/></g><g class="points"/><g class="text"/></g><g class="trace scatter trace5026b0" style="stroke-miterlimit: 2; opacity: 1;"><g class="fills"/><g class="errorbars"/><g class="lines"><path class="js-line" d="M0,51.86L2.12,38.33L4.24,35.34L6.36,27.5L8.49,25.8L12.73,22.65L14.85,21.6L25.46,17.66L27.58,16.78L31.82,15.18L33.94,14.61L42.43,12.52L44.55,12.13L59.4,9.92L61.52,9.73L72.13,8.49L74.25,8.24L84.86,7.59L86.98,7.43L133.65,6.35" style="vector-effect: none; fill: none; stroke: rgb(0, 0, 255); stroke-opacity: 1; stroke-width: 2px; opacity: 1;"/></g><g class="points"/><g class="text"/></g></g></g></g><path class="xlines-above crisp" d="M0,0" style="fill: none;"/><path class="ylines-above crisp" d="M0,0" style="fill: none;"/><g class="overlines-above"/><g class="xaxislayer-above"><g class="x4tick"><text text-anchor="middle" x="0" y="305" transform="translate(256.66,0)" style="font-family: 'Open Sans', verdana, arial, sans-serif; font-size: 12px; fill: rgb(42, 63, 95); fill-opacity: 1; white-space: pre; opacity: 1;">20</text></g><g class="x4tick"><text text-anchor="middle" x="0" y="305" style="font-family: 'Open Sans', verdana, arial, sans-serif; font-size: 12px; fill: rgb(42, 63, 95); fill-opacity: 1; white-space: pre; opacity: 1;" transform="translate(299.09000000000003,0)">40</text></g><g class="x4tick"><text text-anchor="middle" x="0" y="305" style="font-family: 'Open Sans', verdana, arial, sans-serif; font-size: 12px; fill: rgb(42, 63, 95); fill-opacity: 1; white-space: pre; opacity: 1;" transform="translate(341.51,0)">60</text></g></g><g class="yaxislayer-above"><g class="y4tick"><text text-anchor="end" x="215.35000000000002" y="4.199999999999999" transform="translate(0,291.15000000000003)" style="font-family: 'Open Sans', verdana, arial, sans-serif; font-size: 12px; fill: rgb(42, 63, 95); fill-opacity: 1; white-space: pre; opacity: 1;">0.2</text></g><g class="y4tick"><text text-anchor="end" x="215.35000000000002" y="4.199999999999999" style="font-family: 'Open Sans', verdana, arial, sans-serif; font-size: 12px; fill: rgb(42, 63, 95); fill-opacity: 1; white-space: pre; opacity: 1;" transform="translate(0,261.14000000000004)">0.3</text></g><g class="y4tick"><text text-anchor="end" x="215.35000000000002" y="4.199999999999999" style="font-family: 'Open Sans', verdana, arial, sans-serif; font-size: 12px; fill: rgb(42, 63, 95); fill-opacity: 1; white-space: pre; opacity: 1;" transform="translate(0,231.14000000000001)">0.4</text></g><g class="y4tick"><text text-anchor="end" x="215.35000000000002" y="4.199999999999999" style="font-family: 'Open Sans', verdana, arial, sans-serif; font-size: 12px; fill: rgb(42, 63, 95); fill-opacity: 1; white-space: pre; opacity: 1;" transform="translate(0,201.14000000000001)">0.5</text></g></g><g class="overaxes-above"/></g></g><g class="polarlayer"/><g class="smithlayer"/><g class="ternarylayer"/><g class="geolayer"/><g class="funnelarealayer"/><g class="pielayer"/><g class="iciclelayer"/><g class="treemaplayer"/><g class="sunburstlayer"/><g class="glimages"/><defs id="topdefs-6922f3"><g class="clips"/><clipPath id="legend6922f3"><rect width="261" height="86" x="0" y="0"/></clipPath></defs><g class="layer-above"><g class="imagelayer"/><g class="shapelayer"/></g><g class="infolayer"><g class="legend" pointer-events="all" transform="translate(71,333.6)"><rect class="bg" shape-rendering="crispEdges" style="stroke: rgb(68, 68, 68); stroke-opacity: 1; fill: rgb(255, 255, 255); fill-opacity: 1; stroke-width: 0px;" width="261" height="86" x="0" y="0"/><g class="scrollbox" transform="" clip-path="url(#legend6922f3)"><g class="groups"><g class="traces" transform="translate(0,14.5)" style="opacity: 1;"><text class="legendtext" text-anchor="start" x="40" y="4.680000000000001" style="font-family: 'Open Sans', verdana, arial, sans-serif; font-size: 12px; fill: rgb(42, 63, 95); fill-opacity: 1; white-space: pre;">gpt-j cont-retr</text><g class="layers" style="opacity: 1;"><g class="legendfill"/><g class="legendlines"><path class="js-line" d="M5,0h30" style="fill: none; stroke: rgb(0, 0, 255); stroke-opacity: 1; stroke-width: 2px;"/></g><g class="legendsymbols"><g class="legendpoints"/></g></g><rect class="legendtoggle" x="0" y="-9.5" width="119.96875" height="19" style="fill: rgb(0, 0, 0); fill-opacity: 0;"/></g><g class="traces" transform="translate(135.625,14.5)" style="opacity: 1;"><text class="legendtext" text-anchor="start" x="40" y="4.680000000000001" style="font-family: 'Open Sans', verdana, arial, sans-serif; font-size: 12px; fill: rgb(42, 63, 95); fill-opacity: 1; white-space: pre;">gpt-j lora</text><g class="layers" style="opacity: 1;"><g class="legendfill"/><g class="legendlines"><path class="js-line" d="M5,0h30" style="fill: none; stroke: rgb(218, 165, 32); stroke-opacity: 1; stroke-width: 2px;"/></g><g class="legendsymbols"><g class="legendpoints"/></g></g><rect class="legendtoggle" x="0" y="-9.5" width="92.546875" height="19" style="fill: rgb(0, 0, 0); fill-opacity: 0;"/></g><g class="traces" transform="translate(0,33.5)" style="opacity: 1;"><text class="legendtext" text-anchor="start" x="40" y="4.680000000000001" style="font-family: 'Open Sans', verdana, arial, sans-serif; font-size: 12px; fill: rgb(42, 63, 95); fill-opacity: 1; white-space: pre;">gpt-j in-cont</text><g class="layers" style="opacity: 1;"><g class="legendfill"/><g class="legendlines"><path class="js-line" d="M5,0h30" style="fill: none; stroke: rgb(0, 128, 0); stroke-opacity: 1; stroke-width: 2px;"/></g><g class="legendsymbols"><g class="legendpoints"/></g></g><rect class="legendtoggle" x="0" y="-9.5" width="109.515625" height="19" style="fill: rgb(0, 0, 0); fill-opacity: 0;"/></g><g class="traces" transform="translate(135.625,33.5)" style="opacity: 1;"><text class="legendtext" text-anchor="start" x="40" y="4.680000000000001" style="font-family: 'Open Sans', verdana, arial, sans-serif; font-size: 12px; fill: rgb(42, 63, 95); fill-opacity: 1; white-space: pre;">gpt-j MEMIT</text><g class="layers" style="opacity: 1;"><g class="legendfill"/><g class="legendlines"><path class="js-line" d="M5,0h30" style="fill: none; stroke: rgb(255, 0, 0); stroke-opacity: 1; stroke-width: 2px;"/></g><g class="legendsymbols"><g class="legendpoints"/></g></g><rect class="legendtoggle" x="0" y="-9.5" width="109.375" height="19" style="fill: rgb(0, 0, 0); fill-opacity: 0;"/></g><g class="traces" transform="translate(0,52.5)" style="opacity: 1;"><text class="legendtext" text-anchor="start" x="40" y="4.680000000000001" style="font-family: 'Open Sans', verdana, arial, sans-serif; font-size: 12px; fill: rgb(42, 63, 95); fill-opacity: 1; white-space: pre;">gpt2-xl cont-retr</text><g class="layers" style="opacity: 1;"><g class="legendfill"/><g class="legendlines"><path class="js-line" d="M5,0h30" style="fill: none; stroke: rgb(0, 0, 255); stroke-opacity: 1; stroke-dasharray: 3px, 3px; stroke-width: 2px;"/></g><g class="legendsymbols"><g class="legendpoints"/></g></g><rect class="legendtoggle" x="0" y="-9.5" width="133.125" height="19" style="fill: rgb(0, 0, 0); fill-opacity: 0;"/></g><g class="traces" transform="translate(135.625,52.5)" style="opacity: 1;"><text class="legendtext" text-anchor="start" x="40" y="4.680000000000001" style="font-family: 'Open Sans', verdana, arial, sans-serif; font-size: 12px; fill: rgb(42, 63, 95); fill-opacity: 1; white-space: pre;">gpt2-xl lora</text><g class="layers" style="opacity: 1;"><g class="legendfill"/><g class="legendlines"><path class="js-line" d="M5,0h30" style="fill: none; stroke: rgb(218, 165, 32); stroke-opacity: 1; stroke-dasharray: 3px, 3px; stroke-width: 2px;"/></g><g class="legendsymbols"><g class="legendpoints"/></g></g><rect class="legendtoggle" x="0" y="-9.5" width="105.6875" height="19" style="fill: rgb(0, 0, 0); fill-opacity: 0;"/></g><g class="traces" transform="translate(0,71.5)" style="opacity: 1;"><text class="legendtext" text-anchor="start" x="40" y="4.680000000000001" style="font-family: 'Open Sans', verdana, arial, sans-serif; font-size: 12px; fill: rgb(42, 63, 95); fill-opacity: 1; white-space: pre;">gpt2-xl in-cont</text><g class="layers" style="opacity: 1;"><g class="legendfill"/><g class="legendlines"><path class="js-line" d="M5,0h30" style="fill: none; stroke: rgb(0, 128, 0); stroke-opacity: 1; stroke-dasharray: 3px, 3px; stroke-width: 2px;"/></g><g class="legendsymbols"><g class="legendpoints"/></g></g><rect class="legendtoggle" x="0" y="-9.5" width="122.65625" height="19" style="fill: rgb(0, 0, 0); fill-opacity: 0;"/></g><g class="traces" transform="translate(135.625,71.5)" style="opacity: 1;"><text class="legendtext" text-anchor="start" x="40" y="4.680000000000001" style="font-family: 'Open Sans', verdana, arial, sans-serif; font-size: 12px; fill: rgb(42, 63, 95); fill-opacity: 1; white-space: pre;">gpt2-xl MEMIT</text><g class="layers" style="opacity: 1;"><g class="legendfill"/><g class="legendlines"><path class="js-line" d="M5,0h30" style="fill: none; stroke: rgb(255, 0, 0); stroke-opacity: 1; stroke-dasharray: 3px, 3px; stroke-width: 2px;"/></g><g class="legendsymbols"><g class="legendpoints"/></g></g><rect class="legendtoggle" x="0" y="-9.5" width="122.515625" height="19" style="fill: rgb(0, 0, 0); fill-opacity: 0;"/></g></g></g><rect class="scrollbar" rx="20" ry="3" width="0" height="0" style="fill: rgb(128, 139, 164); fill-opacity: 1;" x="0" y="0"/></g><g class="g-gtitle"/><g class="g-xtitle"/><g class="g-x2title"/><g class="g-x3title"><text class="x3title" x="119.825" y="333.3" text-anchor="middle" style="opacity: 1; font-family: 'Open Sans', verdana, arial, sans-serif; font-size: 14px; fill: rgb(42, 63, 95); fill-opacity: 1; white-space: pre;">Generate Length</text></g><g class="g-x4title"><text class="x4title" x="283.175" y="333.3" text-anchor="middle" style="opacity: 1; font-family: 'Open Sans', verdana, arial, sans-serif; font-size: 14px; fill: rgb(42, 63, 95); fill-opacity: 1; white-space: pre;">Generate Length</text></g><g class="g-ytitle"><text class="ytitle" transform="rotate(-90,15.678125000000001,112.19999999999999)" x="15.678125000000001" y="112.19999999999999" text-anchor="middle" style="opacity: 1; font-family: 'Open Sans', verdana, arial, sans-serif; font-size: 14px; fill: rgb(42, 63, 95); fill-opacity: 1; white-space: pre;">Accuracy</text></g><g class="g-y2title"/><g class="g-y3title"><text class="y3title" transform="rotate(-90,15.678125000000001,239.8)" x="15.678125000000001" y="239.8" text-anchor="middle" style="opacity: 1; font-family: 'Open Sans', verdana, arial, sans-serif; font-size: 14px; fill: rgb(42, 63, 95); fill-opacity: 1; white-space: pre;">Accuracy</text></g><g class="g-y4title"/><g class="annotation" data-index="0" style="opacity: 1;"><g class="annotation-text-g" transform="rotate(0,119.825,47)"><g class="cursor-pointer" transform="translate(85,34)"><rect class="bg" x="0.5" y="0.5" width="69" height="25" style="stroke-width: 1px; stroke: rgb(0, 0, 0); stroke-opacity: 0; fill: rgb(0, 0, 0); fill-opacity: 0;"/><text class="annotation-text" text-anchor="middle" x="34.796875" y="19" style="font-family: 'Open Sans', verdana, arial, sans-serif; font-size: 16px; fill: rgb(42, 63, 95); fill-opacity: 1; white-space: pre;">MQuAKE</text></g></g></g><g class="annotation" data-index="1" style="opacity: 1;"><g class="annotation-text-g" transform="rotate(0,283.175,47)"><g class="cursor-pointer" transform="translate(240,34)"><rect class="bg" x="0.5" y="0.5" width="86" height="25" style="stroke-width: 1px; stroke: rgb(0, 0, 0); stroke-opacity: 0; fill: rgb(0, 0, 0); fill-opacity: 0;"/><text class="annotation-text" text-anchor="middle" x="43.3125" y="19" style="font-family: 'Open Sans', verdana, arial, sans-serif; font-size: 16px; fill: rgb(42, 63, 95); fill-opacity: 1; white-space: pre;">RippleEdits</text></g></g></g><g class="annotation" data-index="2" style="opacity: 1;"><g class="annotation-text-g" transform="rotate(0,119.825,174.60000000000002)"><g class="cursor-pointer" transform="translate(102,162)"><rect class="bg" x="0.5" y="0.5" width="34" height="25" style="stroke-width: 1px; stroke: rgb(0, 0, 0); stroke-opacity: 0; fill: rgb(0, 0, 0); fill-opacity: 0;"/><text class="annotation-text" text-anchor="middle" x="17.3125" y="19" style="font-family: 'Open Sans', verdana, arial, sans-serif; font-size: 16px; fill: rgb(42, 63, 95); fill-opacity: 1; white-space: pre;">zsre</text></g></g></g><g class="annotation" data-index="3" style="opacity: 1;"><g class="annotation-text-g" transform="rotate(0,283.175,174.60000000000002)"><g class="cursor-pointer" transform="translate(236,162)"><rect class="bg" x="0.5" y="0.5" width="94" height="25" style="stroke-width: 1px; stroke: rgb(0, 0, 0); stroke-opacity: 0; fill: rgb(0, 0, 0); fill-opacity: 0;"/><text class="annotation-text" text-anchor="middle" x="47.5" y="19" style="font-family: 'Open Sans', verdana, arial, sans-serif; font-size: 16px; fill: rgb(42, 63, 95); fill-opacity: 1; white-space: pre;">CounterFact</text></g></g></g></g></svg>